<?xml version="1.0" encoding="UTF-8" standalone="no"?>
<!-- Created with Inkscape (http://www.inkscape.org/) -->

<svg
   xmlns:svg="http://www.w3.org/2000/svg"
   xmlns="http://www.w3.org/2000/svg"
   version="1.1"
   width="262"
   height="262"
   id="svg2816">
  <defs
     id="defs2820" />
  <path
     d="M 131.00343,5 C 96.491818,5 65.197205,18.77337 42.356002,41.34496 19.5148,63.91655 5.0000001,95.61615 5.0000001,131 c 0,35.38386 14.5147999,67.08346 37.3560019,89.65504 C 65.197205,243.22663 96.491818,257 131.00343,257 165.51505,257 196.8028,243.22663 219.644,220.65504 242.4852,198.08346 257,166.38386 257,131 257,95.61615 242.4852,63.91655 219.644,41.34496 196.8028,18.77337 165.51505,5 131.00343,5 z"
     id="path2828-7-6"
     style="font-size:medium;font-style:normal;font-variant:normal;font-weight:normal;font-stretch:normal;text-indent:0;text-align:start;text-decoration:none;line-height:normal;letter-spacing:normal;word-spacing:normal;text-transform:none;direction:ltr;block-progression:tb;writing-mode:lr-tb;text-anchor:start;color:#000000;fill:#ffffff;fill-opacity:1;stroke:#000000;stroke-width:10;stroke-miterlimit:4;stroke-dasharray:none;marker:none;visibility:visible;display:inline;overflow:visible;enable-background:accumulate;font-family:Bitstream Vera Sans;-inkscape-font-specification:Bitstream Vera Sans" />
  <path
     d="m 67.625,68.453125 0,124.843745 27.84375,0 0,-91.24999 26.0625,66.99999 18.9375,0.18703 26.0625,-66.93702 0,91.24999 27.84375,0 0,-124.843745 -37.15625,0 -26.15625,66.343745 -26.28125,-66.593745 -37.15625,0 z"
     id="path2892"
     style="color:#000000;fill:#000000;fill-opacity:1;fill-rule:nonzero;stroke:none;stroke-width:0.5;marker:none;visibility:visible;display:inline;overflow:visible;enable-background:accumulate" />
</svg>
